<?xml version="1.0" encoding="UTF-8"?>
<!DOCTYPE svg PUBLIC "-//W3C//DTD SVG 1.1//EN" "http://www.w3.org/Graphics/SVG/1.1/DTD/svg11.dtd">
<svg xmlns="http://www.w3.org/2000/svg" version="1.1" width="512px" height="512px" style="shape-rendering:geometricPrecision; text-rendering:geometricPrecision; image-rendering:optimizeQuality; fill-rule:evenodd; clip-rule:evenodd" xmlns:xlink="http://www.w3.org/1999/xlink">
<g><path style="opacity:1" fill="#f94444" d="M 420.5,250.5 C 432.945,231.192 434.778,210.858 426,189.5C 407.244,160.762 381.744,152.595 349.5,165C 346.328,166.752 343.328,168.752 340.5,171C 312.298,199.035 284.298,227.201 256.5,255.5C 255.833,255.167 255.167,254.833 254.5,254.5C 244.167,243.833 233.833,233.167 223.5,222.5C 258.799,187.701 293.965,152.701 329,117.5C 332.383,110.172 330.55,104.672 323.5,101C 320.5,100.333 317.5,100.333 314.5,101C 278.965,136.368 243.632,171.868 208.5,207.5C 208.167,207.5 207.833,207.5 207.5,207.5C 197.167,196.5 186.5,185.833 175.5,175.5C 209.965,140.535 244.632,105.701 279.5,71C 327.5,37 375.5,37 423.5,71C 463.242,107.466 474.409,151.3 457,202.5C 448.807,221.526 436.64,237.526 420.5,250.5 Z"/></g>
<g><path style="opacity:1" fill="#fa7575" d="M 223.5,222.5 C 223.167,222.5 222.833,222.5 222.5,222.5C 217.833,217.5 213.167,212.5 208.5,207.5C 243.632,171.868 278.965,136.368 314.5,101C 317.5,100.333 320.5,100.333 323.5,101C 330.55,104.672 332.383,110.172 329,117.5C 293.965,152.701 258.799,187.701 223.5,222.5 Z"/></g>
<g><path style="opacity:1" fill="#c83232" d="M 420.5,250.5 C 392.5,279.167 364.167,307.5 335.5,335.5C 309.167,308.833 282.833,282.167 256.5,255.5C 284.298,227.201 312.298,199.035 340.5,171C 343.328,168.752 346.328,166.752 349.5,165C 381.744,152.595 407.244,160.762 426,189.5C 434.778,210.858 432.945,231.192 420.5,250.5 Z"/></g>
<g><path style="opacity:1" fill="#57d3f9" d="M 175.5,175.5 C 186.5,185.833 197.167,196.5 207.5,207.5C 179.143,234.69 151.643,262.69 125,291.5C 123.328,297.658 125.162,302.491 130.5,306C 135.111,307.007 139.445,306.34 143.5,304C 169.667,277.833 195.833,251.667 222,225.5C 222.483,224.552 222.649,223.552 222.5,222.5C 222.833,222.5 223.167,222.5 223.5,222.5C 233.833,233.167 244.167,243.833 254.5,254.5C 227.085,283.416 199.085,311.916 170.5,340C 155.466,351.227 138.799,354.561 120.5,350C 89.8699,338.929 76.3699,317.095 80,284.5C 81.6769,275.613 85.1769,267.613 90.5,260.5C 118.5,231.833 146.833,203.5 175.5,175.5 Z"/></g>
<g><path style="opacity:1" fill="#a0f8f9" d="M 207.5,207.5 C 207.833,207.5 208.167,207.5 208.5,207.5C 213.167,212.5 217.833,217.5 222.5,222.5C 222.649,223.552 222.483,224.552 222,225.5C 195.833,251.667 169.667,277.833 143.5,304C 139.445,306.34 135.111,307.007 130.5,306C 125.162,302.491 123.328,297.658 125,291.5C 151.643,262.69 179.143,234.69 207.5,207.5 Z"/></g>
<g><path style="opacity:1" fill="#23a7e0" d="M 254.5,254.5 C 255.167,254.833 255.833,255.167 256.5,255.5C 282.833,282.167 309.167,308.833 335.5,335.5C 301.035,370.465 266.368,405.299 231.5,440C 183.5,474 135.5,474 87.5,440C 47.7581,403.534 36.5914,359.7 54,308.5C 62.1929,289.474 74.3596,273.474 90.5,260.5C 85.1769,267.613 81.6769,275.613 80,284.5C 76.3699,317.095 89.8699,338.929 120.5,350C 138.799,354.561 155.466,351.227 170.5,340C 199.085,311.916 227.085,283.416 254.5,254.5 Z"/></g>
</svg>
